<?xml version="1.0" standalone="no"?>
<!DOCTYPE svg PUBLIC "-//W3C//DTD SVG 20010904//EN"
 "http://www.w3.org/TR/2001/REC-SVG-20010904/DTD/svg10.dtd">
<svg version="1.0" xmlns="http://www.w3.org/2000/svg"
 width="300.000000pt" height="227.000000pt" viewBox="0 0 300.000000 227.000000"
 preserveAspectRatio="xMidYMid meet">
<metadata>
Created by potrace 1.10, written by Peter Selinger 2001-2011
</metadata>
<g transform="translate(0.000000,227.000000) scale(0.100000,-0.100000)"
fill="#000000" stroke="none">
<path d="M661 1248 c-28 -14 -54 -38 -73 -67 -26 -41 -29 -53 -26 -107 5 -79
35 -125 102 -159 55 -28 86 -31 137 -13 97 33 149 123 127 220 -27 120 -156
181 -267 126z m175 -23 c71 -42 102 -133 70 -208 -50 -118 -208 -144 -289 -48
-125 149 50 355 219 256z"/>
<path d="M643 1168 c1 -7 21 -18 43 -25 58 -18 101 -61 116 -117 11 -42 29
-58 42 -38 9 15 -15 86 -41 120 -13 18 -42 41 -63 52 -44 23 -101 27 -97 8z"/>
<path d="M647 1113 c-14 -14 -6 -33 14 -33 11 0 34 -13 50 -29 16 -16 29 -39
29 -50 0 -14 6 -21 20 -21 26 0 26 25 0 67 -27 44 -95 84 -113 66z"/>
<path d="M657 1034 c-12 -12 -8 -42 6 -47 21 -8 39 8 35 29 -3 19 -29 30 -41
18z"/>
<path d="M1627 1186 c-7 -17 18 -40 33 -31 5 3 10 15 10 26 0 23 -35 27 -43 5z"/>
<path d="M1930 1086 c0 -114 0 -116 23 -116 22 0 22 2 21 112 -2 107 -3 113
-23 116 -20 3 -21 0 -21 -112z"/>
<path d="M2504 1185 c-4 -9 -2 -21 4 -27 15 -15 44 -1 40 19 -4 23 -36 29 -44
8z"/>
<path d="M1073 1128 c-16 -7 -23 -20 -23 -38 0 -33 13 -45 58 -55 32 -6 41
-18 23 -29 -5 -4 -21 -2 -36 4 -20 8 -31 7 -42 -2 -22 -18 11 -38 63 -38 89 0
100 81 14 99 -40 8 -53 31 -18 31 13 0 29 -5 34 -10 8 -8 15 -6 24 5 9 11 10
19 3 26 -15 15 -76 20 -100 7z"/>
<path d="M1265 1128 c-32 -17 -45 -39 -45 -78 0 -74 92 -109 145 -55 67 66
-17 179 -100 133z m69 -44 c21 -20 20 -43 -1 -66 -20 -22 -37 -23 -57 -2 -21
21 -20 61 2 73 24 15 38 13 56 -5z"/>
<path d="M1471 1126 c-26 -15 -50 -51 -51 -78 0 -9 12 -30 26 -47 20 -24 34
-31 63 -31 35 0 81 22 81 39 0 18 -32 20 -55 5 -32 -21 -65 -4 -65 34 0 47 43
70 69 38 11 -14 51 -11 51 4 0 14 -37 40 -66 45 -16 3 -40 -1 -53 -9z"/>
<path d="M1753 1130 c-46 -19 -57 -89 -22 -133 18 -24 26 -26 87 -26 l67 1 -2
81 c-1 62 -5 81 -15 79 -18 -5 -38 -4 -68 2 -14 3 -35 1 -47 -4z m75 -42 c21
-21 15 -68 -10 -77 -47 -18 -87 38 -53 73 19 19 46 21 63 4z"/>
<path d="M2376 1133 c-4 -4 -22 -6 -41 -5 l-35 3 0 -81 c0 -78 1 -80 25 -80
23 0 24 4 27 63 3 59 4 62 28 62 24 0 25 -3 28 -62 3 -59 4 -63 27 -63 24 0
25 3 25 55 0 65 -15 101 -44 109 -27 7 -31 7 -40 -1z"/>
<path d="M1630 1050 c0 -73 2 -80 20 -80 18 0 20 7 20 80 0 73 -2 80 -20 80
-18 0 -20 -7 -20 -80z"/>
<path d="M2110 1069 c0 -90 7 -98 85 -97 l65 1 0 78 c0 75 -1 79 -22 79 -21 0
-23 -4 -20 -47 4 -59 -17 -94 -45 -77 -13 8 -19 26 -21 68 -3 48 -6 56 -22 56
-18 0 -20 -7 -20 -61z"/>
<path d="M2500 1050 c0 -79 0 -80 25 -80 25 0 25 1 25 80 0 79 0 80 -25 80
-25 0 -25 -1 -25 -80z"/>
</g>
</svg>
